<svg width="249" height="344" viewBox="0 0 249 344" fill="none" xmlns="http://www.w3.org/2000/svg">
<mask id="path-1-outside-1_199_102" maskUnits="userSpaceOnUse" x="66" y="157.665" width="183" height="183" fill="black">
<rect fill="white" x="66" y="157.665" width="183" height="183"/>
<path d="M245 249.165C245 297.49 205.825 336.665 157.5 336.665C109.175 336.665 70 297.49 70 249.165C70 200.84 109.175 161.665 157.5 161.665C205.825 161.665 245 200.84 245 249.165ZM107.615 249.165C107.615 276.716 129.949 299.05 157.5 299.05C185.051 299.05 207.385 276.716 207.385 249.165C207.385 221.614 185.051 199.28 157.5 199.28C129.949 199.28 107.615 221.614 107.615 249.165Z"/>
</mask>
<path d="M245 249.165C245 297.49 205.825 336.665 157.5 336.665C109.175 336.665 70 297.49 70 249.165C70 200.84 109.175 161.665 157.5 161.665C205.825 161.665 245 200.84 245 249.165ZM107.615 249.165C107.615 276.716 129.949 299.05 157.5 299.05C185.051 299.05 207.385 276.716 207.385 249.165C207.385 221.614 185.051 199.28 157.5 199.28C129.949 199.28 107.615 221.614 107.615 249.165Z" fill="#34C759"/>
<path d="M245 249.165C245 297.49 205.825 336.665 157.5 336.665C109.175 336.665 70 297.49 70 249.165C70 200.84 109.175 161.665 157.5 161.665C205.825 161.665 245 200.84 245 249.165ZM107.615 249.165C107.615 276.716 129.949 299.05 157.5 299.05C185.051 299.05 207.385 276.716 207.385 249.165C207.385 221.614 185.051 199.28 157.5 199.28C129.949 199.28 107.615 221.614 107.615 249.165Z" stroke="white" stroke-width="8" mask="url(#path-1-outside-1_199_102)"/>
<mask id="path-2-outside-2_199_102" maskUnits="userSpaceOnUse" x="-2.84931" y="108.598" width="205.885" height="188.105" fill="black">
<rect fill="white" x="-2.84931" y="108.598" width="205.885" height="188.105"/>
<path d="M100.854 133.142C100.955 128.869 104.494 125.509 108.83 125.988C122.068 127.451 134.756 131.93 145.741 139.074C158.867 147.611 168.972 159.571 174.778 173.441C180.584 187.31 181.83 202.467 178.359 216.995C174.888 231.522 166.856 244.768 155.278 255.056C143.7 265.345 129.096 272.215 113.314 274.796C97.5311 277.378 81.2784 275.556 66.611 269.561C51.9436 263.566 39.5201 253.666 30.9116 241.115C23.7886 230.729 19.5422 218.914 18.4883 206.717C18.1191 202.444 21.6996 199.117 26.0494 199.206L54.4643 199.785C59.0237 199.878 62.6168 203.72 63.6783 208.112C64.5974 211.916 66.222 215.564 68.5008 218.886C72.3746 224.534 77.9652 228.989 84.5655 231.687C91.1659 234.385 98.4796 235.205 105.582 234.043C112.684 232.881 119.255 229.79 124.466 225.16C129.676 220.53 133.29 214.57 134.852 208.032C136.414 201.495 135.853 194.674 133.241 188.433C130.628 182.191 126.081 176.81 120.174 172.968C116.569 170.623 112.557 168.917 108.338 167.909C103.877 166.844 100.144 163.138 100.25 158.66L100.854 133.142Z"/>
</mask>
<path d="M100.854 133.142C100.955 128.869 104.494 125.509 108.83 125.988C122.068 127.451 134.756 131.93 145.741 139.074C158.867 147.611 168.972 159.571 174.778 173.441C180.584 187.31 181.83 202.467 178.359 216.995C174.888 231.522 166.856 244.768 155.278 255.056C143.7 265.345 129.096 272.215 113.314 274.796C97.5311 277.378 81.2784 275.556 66.611 269.561C51.9436 263.566 39.5201 253.666 30.9116 241.115C23.7886 230.729 19.5422 218.914 18.4883 206.717C18.1191 202.444 21.6996 199.117 26.0494 199.206L54.4643 199.785C59.0237 199.878 62.6168 203.72 63.6783 208.112C64.5974 211.916 66.222 215.564 68.5008 218.886C72.3746 224.534 77.9652 228.989 84.5655 231.687C91.1659 234.385 98.4796 235.205 105.582 234.043C112.684 232.881 119.255 229.79 124.466 225.16C129.676 220.53 133.29 214.57 134.852 208.032C136.414 201.495 135.853 194.674 133.241 188.433C130.628 182.191 126.081 176.81 120.174 172.968C116.569 170.623 112.557 168.917 108.338 167.909C103.877 166.844 100.144 163.138 100.25 158.66L100.854 133.142Z" fill="#33141C"/>
<path d="M100.854 133.142C100.955 128.869 104.494 125.509 108.83 125.988C122.068 127.451 134.756 131.93 145.741 139.074C158.867 147.611 168.972 159.571 174.778 173.441C180.584 187.31 181.83 202.467 178.359 216.995C174.888 231.522 166.856 244.768 155.278 255.056C143.7 265.345 129.096 272.215 113.314 274.796C97.5311 277.378 81.2784 275.556 66.611 269.561C51.9436 263.566 39.5201 253.666 30.9116 241.115C23.7886 230.729 19.5422 218.914 18.4883 206.717C18.1191 202.444 21.6996 199.117 26.0494 199.206L54.4643 199.785C59.0237 199.878 62.6168 203.72 63.6783 208.112C64.5974 211.916 66.222 215.564 68.5008 218.886C72.3746 224.534 77.9652 228.989 84.5655 231.687C91.1659 234.385 98.4796 235.205 105.582 234.043C112.684 232.881 119.255 229.79 124.466 225.16C129.676 220.53 133.29 214.57 134.852 208.032C136.414 201.495 135.853 194.674 133.241 188.433C130.628 182.191 126.081 176.81 120.174 172.968C116.569 170.623 112.557 168.917 108.338 167.909C103.877 166.844 100.144 163.138 100.25 158.66L100.854 133.142Z" stroke="white" stroke-width="8" mask="url(#path-2-outside-2_199_102)"/>
<mask id="mask0_199_102" style="mask-type:alpha" maskUnits="userSpaceOnUse" x="90" y="150" width="119" height="57">
<rect x="90.335" y="150" width="118" height="57" fill="#0057E2"/>
</mask>
<g mask="url(#mask0_199_102)">
<mask id="path-4-outside-3_199_102" maskUnits="userSpaceOnUse" x="65.335" y="157.628" width="183" height="183" fill="black">
<rect fill="white" x="65.335" y="157.628" width="183" height="183"/>
<path d="M244.335 249.128C244.335 297.453 205.16 336.628 156.835 336.628C108.51 336.628 69.335 297.453 69.335 249.128C69.335 200.803 108.51 161.628 156.835 161.628C205.16 161.628 244.335 200.803 244.335 249.128ZM106.076 249.128C106.076 277.162 128.801 299.888 156.835 299.888C184.869 299.888 207.594 277.162 207.594 249.128C207.594 221.095 184.869 198.369 156.835 198.369C128.801 198.369 106.076 221.095 106.076 249.128Z"/>
</mask>
<path d="M244.335 249.128C244.335 297.453 205.16 336.628 156.835 336.628C108.51 336.628 69.335 297.453 69.335 249.128C69.335 200.803 108.51 161.628 156.835 161.628C205.16 161.628 244.335 200.803 244.335 249.128ZM106.076 249.128C106.076 277.162 128.801 299.888 156.835 299.888C184.869 299.888 207.594 277.162 207.594 249.128C207.594 221.095 184.869 198.369 156.835 198.369C128.801 198.369 106.076 221.095 106.076 249.128Z" fill="#34C759"/>
<path d="M244.335 249.128C244.335 297.453 205.16 336.628 156.835 336.628C108.51 336.628 69.335 297.453 69.335 249.128C69.335 200.803 108.51 161.628 156.835 161.628C205.16 161.628 244.335 200.803 244.335 249.128ZM106.076 249.128C106.076 277.162 128.801 299.888 156.835 299.888C184.869 299.888 207.594 277.162 207.594 249.128C207.594 221.095 184.869 198.369 156.835 198.369C128.801 198.369 106.076 221.095 106.076 249.128Z" stroke="white" stroke-width="8" mask="url(#path-4-outside-3_199_102)"/>
</g>
<path d="M26.0527 94.6463C21.7069 94.7946 18.0824 91.5351 18.3805 87.2722C19.2351 75.0507 23.2939 63.1662 30.2571 52.6744C38.6648 40.0061 50.9293 29.9374 65.4997 23.7414C80.0701 17.5455 96.2919 15.5007 112.114 17.8655C127.936 20.2304 142.647 26.8987 154.388 37.0272C166.128 47.1557 174.371 60.2895 178.073 74.7677C181.774 89.246 180.77 104.418 175.185 118.366C169.6 132.314 159.687 144.411 146.698 153.128C135.826 160.424 123.207 165.077 109.991 166.72C105.664 167.258 102.081 163.965 101.912 159.71L100.901 134.178C100.724 129.7 104.418 125.935 108.878 124.8C113.066 123.734 117.038 121.975 120.595 119.589C126.44 115.666 130.901 110.223 133.414 103.946C135.927 97.6694 136.379 90.8418 134.713 84.3266C133.047 77.8114 129.338 71.9012 124.055 67.3434C118.772 62.7856 112.152 59.7848 105.032 58.7206C97.9118 57.6565 90.6119 58.5766 84.0553 61.3648C77.4986 64.153 71.9796 68.6839 68.1961 74.3846C65.9728 77.7346 64.4075 81.4 63.5484 85.2113C62.5541 89.6221 59.0023 93.5213 54.429 93.6774L26.0527 94.6463Z" fill="#33141C"/>
<rect x="192.023" y="264.633" width="69.4644" height="41.1575" rx="10" transform="rotate(60 192.023 264.633)" fill="#34C759" stroke="white" stroke-width="4"/>
</svg>
